<svg xmlns="http://www.w3.org/2000/svg" viewBox="0 0 32 32">
  <rect width="32" height="32" rx="8" fill="#4f7cff"/>

  <g transform="translate(4 4)">
    <path
      d="M12 6.5C10.5 5 8.5 4 6 4C4.5 4 3.2 4.4 2.5 5V18.5C3.2 17.9 4.5 17.5 6 17.5C8.5 17.5 10.5 18.5 12 20"
      stroke="white"
      stroke-width="1.7"
      stroke-linecap="round"
      stroke-linejoin="round"
      fill="none"
    />

    <path
      d="M12 6.5C13.5 5 15.5 4 18 4C19.5 4 20.8 4.4 21.5 5V18.5C20.8 17.9 19.5 17.5 18 17.5C15.5 17.5 13.5 18.5 12 20"
      stroke="white"
      stroke-width="1.7"
      stroke-linecap="round"
      stroke-linejoin="round"
      fill="none"
    />

    <path
      d="M12 6.5V20"
      stroke="white"
      stroke-width="1.7"
      stroke-linecap="round"
      fill="none"
    />

    <path
      d="M17 8.5L17.5 7L18 8.5L19.5 9L18 9.5L17.5 11L17 9.5L15.5 9L17 8.5Z"
      fill="white"
    />
  </g>
</svg>